<svg xmlns="http://www.w3.org/2000/svg" width="61.647" height="54.899" viewBox="0 0 61.647 54.899"><defs><style>.a{fill:#61dafb;}</style></defs><g transform="translate(0)"><path class="a" d="M237.347,105.456c0-4.084-5.114-7.954-12.955-10.354,1.809-7.992,1.005-14.35-2.538-16.386a5.509,5.509,0,0,0-2.815-.7v2.8a2.91,2.91,0,0,1,1.432.327c1.709.98,2.45,4.712,1.872,9.512-.138,1.181-.364,2.425-.641,3.694a60.9,60.9,0,0,0-7.979-1.37A61.3,61.3,0,0,0,208.5,86.7c4.1-3.807,7.941-5.893,10.555-5.893V78c-3.456,0-7.979,2.463-12.553,6.735-4.574-4.247-9.1-6.685-12.553-6.685v2.8c2.6,0,6.459,2.073,10.555,5.856a59.349,59.349,0,0,0-5.19,6.27,58.682,58.682,0,0,0-7.992,1.382c-.289-1.257-.5-2.475-.653-3.644-.591-4.8.138-8.532,1.835-9.525a2.8,2.8,0,0,1,1.445-.327v-2.8a5.6,5.6,0,0,0-2.84.7c-3.531,2.036-4.323,8.381-2.5,16.348-7.816,2.413-12.9,6.27-12.9,10.342s5.114,7.954,12.955,10.354c-1.809,7.992-1.005,14.35,2.538,16.386a5.524,5.524,0,0,0,2.827.7c3.456,0,7.979-2.463,12.553-6.735,4.574,4.247,9.1,6.685,12.553,6.685a5.6,5.6,0,0,0,2.84-.7c3.531-2.036,4.323-8.381,2.5-16.348,7.791-2.4,12.88-6.27,12.88-10.342Zm-16.36-8.381c-.465,1.621-1.043,3.292-1.7,4.963-.515-1.005-1.056-2.01-1.646-3.016s-1.194-1.985-1.809-2.94C217.619,96.346,219.34,96.673,220.987,97.075Zm-5.755,13.382c-.98,1.7-1.985,3.3-3.028,4.8-1.872.163-3.77.251-5.68.251s-3.795-.088-5.655-.239q-1.564-2.243-3.041-4.775-1.432-2.469-2.614-5c.779-1.684,1.659-3.368,2.6-5.014.98-1.7,1.985-3.3,3.028-4.8,1.872-.163,3.77-.251,5.68-.251s3.795.088,5.655.239q1.564,2.243,3.041,4.775,1.432,2.469,2.614,5C217.041,107.127,216.174,108.811,215.232,110.457Zm4.059-1.634c.679,1.684,1.257,3.368,1.734,5-1.646.4-3.38.741-5.177,1.005.616-.968,1.231-1.96,1.809-2.978s1.118-2.023,1.634-3.028Zm-12.742,13.408a51.8,51.8,0,0,1-3.493-4.021c1.131.05,2.287.088,3.456.088s2.35-.025,3.493-.088A49.046,49.046,0,0,1,206.549,122.231Zm-9.349-7.4c-1.784-.264-3.506-.591-5.152-.993.465-1.621,1.043-3.292,1.7-4.963.515,1.005,1.055,2.01,1.646,3.016S196.584,113.875,197.2,114.83Zm9.286-26.149a51.81,51.81,0,0,1,3.493,4.021c-1.131-.05-2.287-.088-3.456-.088s-2.35.025-3.493.088A49.054,49.054,0,0,1,206.486,88.681Zm-9.3,7.4c-.616.968-1.231,1.96-1.809,2.978s-1.118,2.01-1.634,3.016c-.679-1.684-1.257-3.368-1.734-5,1.646-.39,3.38-.729,5.177-.993Zm-11.372,15.732c-4.448-1.9-7.326-4.385-7.326-6.358s2.878-4.473,7.326-6.358c1.081-.465,2.262-.88,3.481-1.269a60.351,60.351,0,0,0,2.827,7.652,59.5,59.5,0,0,0-2.79,7.615C188.09,112.706,186.909,112.279,185.815,111.814Zm6.76,17.956c-1.709-.98-2.45-4.712-1.872-9.512.138-1.181.364-2.425.641-3.694a60.893,60.893,0,0,0,7.979,1.37,61.3,61.3,0,0,0,5.227,6.283c-4.1,3.807-7.941,5.893-10.555,5.893a3,3,0,0,1-1.42-.339Zm29.806-9.575c.591,4.8-.138,8.532-1.835,9.525a2.8,2.8,0,0,1-1.445.327c-2.6,0-6.459-2.073-10.555-5.856a59.348,59.348,0,0,0,5.19-6.27,58.672,58.672,0,0,0,7.992-1.382A35.178,35.178,0,0,1,222.381,120.2Zm4.838-8.381c-1.081.465-2.262.88-3.481,1.269a60.352,60.352,0,0,0-2.827-7.652,59.5,59.5,0,0,0,2.79-7.615c1.244.39,2.425.817,3.531,1.282,4.448,1.9,7.326,4.385,7.326,6.358S231.667,109.929,227.219,111.814ZM193.933,78.05Z" transform="translate(-175.7 -78)"/><circle class="a" cx="5.742" cy="5.742" r="5.742" transform="translate(25.068 21.713)"/><path class="a" d="M520.5,78.1Z" transform="translate(-477.174 -78.087)"/></g></svg>