<svg xmlns="http://www.w3.org/2000/svg" width="78.499" height="58.841" viewBox="0 0 78.499 58.841"><defs><style>.a{fill:#cf649a;}</style></defs><path class="a" d="M67.46,34.029a16.172,16.172,0,0,0-7.115,1.656A14.639,14.639,0,0,1,58.751,32a10.178,10.178,0,0,1-.138-3.1,24.838,24.838,0,0,1,.935-3.343c-.015-.138-.169-.813-1.748-.828s-2.944.307-3.1.721a17.61,17.61,0,0,0-.659,2.346c-.276,1.441-3.159,6.547-4.8,9.231a9.413,9.413,0,0,1-1.089-2.7,10.178,10.178,0,0,1-.138-3.1,24.839,24.839,0,0,1,.935-3.343c-.015-.138-.169-.813-1.748-.828s-2.944.307-3.1.721-.322,1.4-.659,2.346c-.322.951-4.155,9.476-5.152,11.7-.506,1.135-.951,2.039-1.273,2.653s-.015.046-.046.107c-.276.521-.429.813-.429.813v.015c-.215.383-.445.751-.552.751a5.114,5.114,0,0,1,.031-2.438c.567-2.959,1.947-7.575,1.932-7.743,0-.077.261-.889-.889-1.3a1.4,1.4,0,0,0-1.61.276c-.092,0-.169.245-.169.245s1.242-5.2-2.377-5.2c-2.269,0-5.4,2.469-6.946,4.723-.981.537-3.067,1.671-5.275,2.883-.843.46-1.717.951-2.545,1.4l-.169-.184c-4.385-4.677-12.5-7.989-12.159-14.275.123-2.285.92-8.311,15.578-15.609,12.006-5.98,21.62-4.339,23.291-.69,2.377,5.213-5.137,14.9-17.618,16.3-4.753.537-7.253-1.3-7.881-1.993-.659-.721-.751-.751-1-.613-.4.215-.153.859,0,1.242A7.4,7.4,0,0,0,22.7,26.73c2.285.751,7.866,1.165,14.612-1.441,7.559-2.929,13.462-11.055,11.73-17.848C47.281.526,35.812-1.744,24.972,2.105,18.517,4.405,11.525,7.993,6.5,12.7.515,18.282-.435,23.157-.037,25.181,1.359,32.4,11.31,37.111,15.3,40.591c-.2.107-.383.215-.552.307-1.993.981-9.583,4.953-11.485,9.154-2.147,4.753.337,8.173,1.993,8.633,5.121,1.426,10.365-1.135,13.2-5.351,2.821-4.217,2.484-9.691,1.181-12.19l-.046-.092,1.564-.92c1.012-.6,2.009-1.15,2.883-1.625a19.09,19.09,0,0,0-1.027,5.213c-.215,2.7.889,6.195,2.346,7.575a2.6,2.6,0,0,0,1.886.613c1.687,0,2.453-1.4,3.3-3.067,1.043-2.039,1.963-4.4,1.963-4.4s-1.15,6.394,1.993,6.394c1.15,0,2.3-1.487,2.821-2.254V48.6s.031-.046.092-.153c.123-.184.184-.291.184-.291V48.12c.46-.8,1.487-2.622,3.021-5.643,1.978-3.895,3.879-8.771,3.879-8.771a27.987,27.987,0,0,0,.751,3.159,30.262,30.262,0,0,0,1.641,3.68c-.46.644-.736,1.012-.736,1.012l.015.015c-.368.491-.782,1.012-1.211,1.533a44.566,44.566,0,0,0-3.68,4.615,1.263,1.263,0,0,0,.337,1.687,3.068,3.068,0,0,0,1.932.307,8.607,8.607,0,0,0,2.883-.659,9.983,9.983,0,0,0,2.484-1.3,5.531,5.531,0,0,0,2.377-4.891,9.834,9.834,0,0,0-.9-3.45c.138-.2.276-.4.414-.613a64.71,64.71,0,0,0,4.293-7.437,27.987,27.987,0,0,0,.751,3.159,22.16,22.16,0,0,0,1.4,3.159,13.632,13.632,0,0,0-4.186,5.413c-.9,2.607-.2,3.787,1.135,4.063a4.082,4.082,0,0,0,2.1-.429,9.512,9.512,0,0,0,2.653-1.365c1.533-1.135,3.005-2.714,2.929-4.845a9.288,9.288,0,0,0-.659-2.867,14.938,14.938,0,0,1,7.605-.874c6.823.8,8.173,5.06,7.912,6.839a4.581,4.581,0,0,1-2.162,3.067c-.475.291-.629.4-.583.613.061.322.276.307.69.245A5.307,5.307,0,0,0,78.377,42.8c.184-4.217-3.818-8.817-10.917-8.771ZM14.837,51.769c-2.254,2.469-5.428,3.4-6.777,2.607-1.457-.843-.889-4.477,1.886-7.1a36.078,36.078,0,0,1,5.321-3.971c.322-.2.813-.491,1.4-.843a1.594,1.594,0,0,1,.153-.092c.107-.061.23-.138.353-.215A9.781,9.781,0,0,1,14.837,51.769ZM31.32,40.561c-.782,1.917-2.438,6.839-3.435,6.563-.859-.23-1.38-3.956-.169-7.636A17.046,17.046,0,0,1,30.4,34.565c1.242-1.38,2.591-1.84,2.929-1.273C33.727,34.029,31.81,39.365,31.32,40.561Zm13.6,6.5c-.337.169-.644.291-.782.2-.107-.061.138-.291.138-.291s1.7-1.825,2.377-2.668c.383-.491.843-1.058,1.334-1.7v.184C47.987,44.992,45.871,46.464,44.92,47.062ZM55.408,44.67c-.245-.184-.215-.751.613-2.53a9.478,9.478,0,0,1,2.331-3.005,3.8,3.8,0,0,1,.23,1.319A4.315,4.315,0,0,1,55.408,44.67Z" transform="translate(0.116 -0.241)"/></svg>