<svg xmlns="http://www.w3.org/2000/svg" xmlns:xlink="http://www.w3.org/1999/xlink" width="91.087" height="54.652" viewBox="0 0 91.087 54.652"><defs><style>.a{fill:url(#a);}</style><linearGradient id="a" x2="1" y2="1" gradientUnits="objectBoundingBox"><stop offset="0" stop-color="#2383ae"/><stop offset="1" stop-color="#6dd7b9"/></linearGradient></defs><path class="a" d="M22.772,18.217Q27.325,0,45.544,0c18.217,0,20.495,13.663,29.6,15.94q9.11,2.278,15.94-6.832Q86.534,27.325,68.315,27.326c-18.217,0-20.495-13.663-29.6-15.94Q29.6,9.108,22.772,18.217ZM0,45.544Q4.553,27.327,22.772,27.326c18.217,0,20.495,13.663,29.6,15.94q9.11,2.278,15.94-6.832Q63.762,54.651,45.544,54.652c-18.217,0-20.495-13.663-29.6-15.94Q6.83,36.434,0,45.544Z"/></svg>