<svg xmlns="http://www.w3.org/2000/svg" width="16" height="16"><path d="M8 1.422a24.53 24.53 0 013.2.089 4.123 4.123 0 011.511.267 3.122 3.122 0 011.511 1.511 4.123 4.123 0 01.267 1.511c0 .8.089 1.067.089 3.2a24.53 24.53 0 01-.089 3.2 4.123 4.123 0 01-.267 1.511 3.122 3.122 0 01-1.511 1.511 4.123 4.123 0 01-1.511.267c-.8 0-1.067.089-3.2.089a24.53 24.53 0 01-3.2-.089 4.123 4.123 0 01-1.511-.267 3.122 3.122 0 01-1.511-1.511 4.123 4.123 0 01-.267-1.511c0-.8-.089-1.067-.089-3.2a24.53 24.53 0 01.089-3.2 4.123 4.123 0 01.267-1.511A3.192 3.192 0 012.4 2.4a1.5 1.5 0 01.889-.622A4.123 4.123 0 014.8 1.511 24.53 24.53 0 018 1.422M8 0a26.264 26.264 0 00-3.289.089 5.488 5.488 0 00-1.955.355 3.48 3.48 0 00-1.422.889 3.48 3.48 0 00-.89 1.423 4.05 4.05 0 00-.355 1.955A26.264 26.264 0 000 8a26.264 26.264 0 00.089 3.289 5.488 5.488 0 00.356 1.956 3.48 3.48 0 00.889 1.422 3.48 3.48 0 001.422.889 5.488 5.488 0 001.956.356A26.264 26.264 0 008 16a26.264 26.264 0 003.289-.089 5.488 5.488 0 001.956-.356 3.729 3.729 0 002.311-2.311 5.488 5.488 0 00.356-1.956C15.911 10.4 16 10.133 16 8a26.264 26.264 0 00-.089-3.289 5.488 5.488 0 00-.356-1.956 3.48 3.48 0 00-.889-1.422 3.48 3.48 0 00-1.422-.889 5.488 5.488 0 00-1.955-.355A26.264 26.264 0 008 0m0 3.911A4.023 4.023 0 003.911 8 4.089 4.089 0 108 3.911m0 6.756A2.619 2.619 0 015.333 8 2.619 2.619 0 018 5.333 2.619 2.619 0 0110.667 8 2.619 2.619 0 018 10.667m4.267-7.911a.978.978 0 10.978.978.986.986 0 00-.978-.978" fill="#fff" fill-rule="evenodd"/></svg>