<svg xmlns="http://www.w3.org/2000/svg" width="60.869" height="56.055" viewBox="0 0 60.869 56.055"><defs><style>.a{fill:#fff;}</style></defs><rect class="a" width="37.846" height="12.419" transform="translate(23.024 21.818)"/><path class="a" d="M261.291,159.345a7.578,7.578,0,0,1,5.565-2.3H307.61V144.794l-40.754-.1a19.878,19.878,0,0,0-14.244,5.922,20.85,20.85,0,0,0-4.289,6.433,19.646,19.646,0,0,0-1.582,7.862v15.724a19.647,19.647,0,0,0,1.582,7.862,19.971,19.971,0,0,0,10.67,10.67,19.646,19.646,0,0,0,7.862,1.582H307.61V188.5H266.856a7.843,7.843,0,0,1-7.862-7.862V164.909A7.58,7.58,0,0,1,261.291,159.345Z" transform="translate(-246.741 -144.692)"/></svg>