<svg xmlns="http://www.w3.org/2000/svg" width="51.907" height="47.802" viewBox="0 0 51.907 47.802"><defs><style>.a{fill:#ff8110;}</style></defs><g transform="translate(-129.107 -234.724)"><g transform="translate(-117.634 90.032)"><rect class="a" width="32.274" height="10.591" transform="translate(266.375 163.298)"/><path class="a" d="M259.149,157.187a6.462,6.462,0,0,1,4.746-1.959h34.754V144.779l-34.754-.087a16.951,16.951,0,0,0-12.147,5.05,17.781,17.781,0,0,0-3.657,5.486,16.753,16.753,0,0,0-1.349,6.7v13.409a16.754,16.754,0,0,0,1.349,6.7,17.031,17.031,0,0,0,9.1,9.1,16.753,16.753,0,0,0,6.7,1.349h34.754V182.046H263.894a6.689,6.689,0,0,1-6.7-6.7V161.932A6.463,6.463,0,0,1,259.149,157.187Z"/></g></g></svg>