<svg xmlns="http://www.w3.org/2000/svg" width="16" height="12.978"><path d="M5.067 12.978A9.25 9.25 0 0014.4 3.644V3.2A7.225 7.225 0 0016 1.511a7.379 7.379 0 01-1.867.533A3.458 3.458 0 0015.555.266a8.153 8.153 0 01-2.044.8A3.175 3.175 0 0011.111 0a3.34 3.34 0 00-3.289 3.289A1.733 1.733 0 007.911 4 9.19 9.19 0 011.155.533a3.4 3.4 0 00-.444 1.689 3.532 3.532 0 001.422 2.756 3 3 0 01-1.511-.444 3.249 3.249 0 002.667 3.2 2.74 2.74 0 01-.889.089 1.513 1.513 0 01-.622-.089 3.367 3.367 0 003.111 2.311A6.711 6.711 0 01.8 11.467a2.461 2.461 0 01-.8-.089 8.39 8.39 0 005.067 1.6" fill="#000" fill-rule="evenodd"/></svg>